<svg xmlns="http://www.w3.org/2000/svg" viewBox="0 0 512 512" width="512" height="512">
	<style>
		tspan { white-space:pre }
		.shp0 { fill: #fdf3f4 } 
		.shp1 { fill: #daecf0 } 
		.shp2 { fill: #d6d641 } 
		.shp3 { fill: #25b5b5 } 
		.shp4 { fill: #fdd1a3 } 
		.shp5 { fill: #ffbb85 } 
		.shp6 { fill: #ad5252 } 
		.shp7 { fill: #1b7474 } 
	</style>
	<path id="Layer" class="shp0" d="M347.98 315.4C320.29 298.26 288.36 289.2 255.66 289.2C222.97 289.2 191.04 298.26 163.35 315.4C156.75 319.48 154.36 327.92 157.82 334.86L242.25 503.71C244.79 508.79 249.98 512 255.66 512C261.35 512 266.54 508.79 269.08 503.71L353.51 334.86C356.98 327.92 354.58 319.48 347.98 315.4L347.98 315.4Z" />
	<path id="Layer" class="shp1" d="M347.98 315.4C320.29 298.26 288.36 289.2 255.66 289.2L255.66 512C261.35 512 266.54 508.79 269.08 503.71L353.51 334.86C356.98 327.92 354.58 319.48 347.98 315.4L347.98 315.4Z" />
	<path id="Layer" class="shp2" d="M255.66 507.18C247.38 507.18 240.66 500.46 240.66 492.18L240.66 304.2C240.66 295.91 247.38 289.2 255.66 289.2C263.95 289.2 270.66 295.91 270.66 304.2L270.66 492.18C270.66 500.46 263.95 507.18 255.66 507.18L255.66 507.18Z" />
	<path id="Layer" class="shp3" d="M345.1 378.04C336.29 352.53 323.62 330.86 308.47 315.4C306.3 313.18 303.66 312.57 301.2 313.72C298.74 314.87 296.69 317.68 295.55 321.45L252.5 463.46L209.45 321.45C208.31 317.68 206.26 314.87 203.8 313.72C201.34 312.57 198.7 313.18 196.53 315.4C181.38 330.86 168.71 352.53 159.9 378.04C150.81 404.38 146 434.4 146 464.87L146 497C146 505.29 150.07 512 155.09 512L349.91 512C354.93 512 359 505.29 359 497L359 464.87C359 434.4 354.19 404.38 345.1 378.04L345.1 378.04Z" />
	<path id="Layer" class="shp4" d="M255.66 0C167.66 0 96.07 71.6 96.07 159.6C96.07 247.61 167.66 319.2 255.66 319.2C343.67 319.2 415.27 247.61 415.27 159.6C415.27 71.6 343.67 0 255.66 0L255.66 0Z" />
	<path id="Layer" class="shp5" d="M255.66 0L255.66 319.2C343.67 319.2 415.27 247.6 415.27 159.6C415.27 71.59 343.67 0 255.66 0L255.66 0Z" />
	<path id="Layer" class="shp6" d="M209.94 6.59C209.94 6.59 114.85 10.9 103.54 118.26C103.54 118.26 102.42 147.24 82.04 159.04C82.04 159.04 50.34 178.37 66.2 229.89C66.2 229.89 72.99 262.11 43.55 280.37C43.55 280.37 18.66 300.77 34.52 329.77C34.52 329.77 44.71 339.44 26.59 356.61C26.59 356.61 10.74 383.46 37.91 419.96C37.91 419.96 34.52 393.15 41.3 386.69C41.3 386.69 65.07 413.51 59.42 431.79C59.42 431.79 97.91 411.38 153.36 407.1C153.36 407.1 220.15 395.26 213.36 314.76C213.36 314.76 151.11 268.59 153.36 227.77L161.29 167.66C161.29 167.66 187.33 137.62 189.59 125.79C189.59 125.79 207.7 151.55 185.05 170.88C185.05 170.88 224.68 162.28 211.1 108.59C211.1 108.59 220.13 89.27 225.81 90.36C225.81 90.36 245.05 137.59 301.66 140.82C301.66 140.82 310.69 194.48 345.79 199.87C345.79 199.87 346.92 280.38 297.11 313.68C297.11 313.68 285.79 408.17 385.4 412.47C385.4 412.47 367.29 455.41 406.9 464C406.9 464 400.12 422.13 432.94 422.13L447.65 439.29C447.65 439.29 482.75 397.43 466.9 368.46C466.9 368.46 434.07 353.42 446.53 313.7C446.53 313.7 466.9 298.69 438.6 279.34C438.6 279.34 432.94 271.82 443.17 263.24C443.17 263.24 478.24 235.31 419.38 174.11L417.15 118.27C417.15 118.27 401.3 34.53 293.78 -5.21C293.74 -5.22 216.74 -19.19 209.94 6.59Z" />
	<g id="Layer">
		<path id="Layer" class="shp7" d="M350.89 375.92C341.1 350 327.02 327.99 310.19 312.28C307.77 310.03 304.84 309.41 302.11 310.58C299.38 311.74 297.1 314.59 295.83 318.42L248 462.69L248 512L356.23 512C361.81 512 366.34 505.18 366.34 496.76L366.34 464.12C366.34 433.17 360.99 402.67 350.89 375.92L350.89 375.92Z" />
	</g>
</svg>