<svg height="511pt" viewBox="1 -6 511.999 511" width="511pt" xmlns="http://www.w3.org/2000/svg"><path d="m118.433594 159.636719v209.914062h-93.5625v-18.988281c0-7.261719-3.167969-14.160156-8.671875-18.898438l-.046875-.039062c-5.496094-4.742188-8.660156-11.636719-8.660156-18.898438v-136.699218c0-7.660156 6.210937-13.863282 13.863281-13.863282 1.816406 0 3.566406.351563 5.152343.992188 1.757813.695312 3.335938 1.746094 4.65625 3.0625 2.515626 2.507812 4.0625 5.984375 4.0625 9.808594v-16.390625c0-7.660157 6.214844-13.871094 13.875-13.871094 1.816407 0 3.554688.351563 5.144532.988281 1.757812.699219 3.335937 1.757813 4.652344 3.078125 2.507812 2.503907 4.066406 5.972657 4.066406 9.804688v-12.074219c0-7.660156 6.210937-13.863281 13.871094-13.863281 1.808593 0 3.546874.351562 5.144531.992187 1.757812.695313 3.347656 1.746094 4.664062 3.0625 2.507813 2.507813 4.054688 5.984375 4.054688 9.808594v12.074219c0-7.660157 6.210937-13.871094 13.875-13.871094 3.832031 0 7.289062 1.546875 9.808593 4.066406 2.503907 2.503907 4.050782 5.972657 4.050782 9.804688zm0 0" fill="#fdd7bd"/><path d="m118.433594 192.957031v111.0625l-36.316406-1.214843c-6.445313-.214844-11.5625-5.507813-11.5625-11.957032 0-6.222656 3.773437-11.824218 9.539062-14.164062l18.046875-7.332032c6.839844-2.773437 11.304687-9.425781 11.304687-16.796874v-46.613282c0-5.941406 3.734376-11.007812 8.988282-12.984375zm0 0" fill="#fac5aa"/><path d="m79.542969 367.980469v-70.144531c0-6.222657 3.769531-11.824219 9.535156-14.164063l18.050781-7.332031c6.835938-2.777344 11.308594-9.417969 11.308594-16.800782v-50.238281c0-7.660156 6.207031-13.867187 13.867188-13.867187 7.660156 0 13.867187 6.207031 13.867187 13.867187v103.027344c0 7.492187-3.363281 14.582031-9.167969 19.316406-5.800781 4.734375-9.167968 11.828125-9.167968 19.316407v18.589843" fill="#fdd7bd"/><path d="m149.128906 380.285156v111.832032h-141.636718v-111.832032c0-5.933594 4.804687-10.734375 10.726562-10.734375h120.171875c5.933594 0 10.738281 4.800781 10.738281 10.734375zm0 0" fill="#87dbff"/><path d="m149.128906 380.285156v48.640625h-141.636718v-48.640625c0-5.933594 4.804687-10.734375 10.726562-10.734375h120.171875c5.933594 0 10.738281 4.800781 10.738281 10.734375zm0 0" fill="#6fc7ff"/><g fill="#fac5aa"><path d="m35.226562 176.027344v60.625h-2.027343c-3.695313 0-6.691407-2.996094-6.691407-6.691406v-66.808594c1.757813.699218 3.335938 1.75 4.652344 3.066406 2.519532 2.507812 4.066406 5.984375 4.066406 9.808594zm0 0"/><path d="m62.964844 159.636719v77.015625h-2.027344c-3.695312 0-6.695312-2.996094-6.695312-6.691406v-83.207032c1.761718.699219 3.335937 1.757813 4.65625 3.078125 2.507812 2.503907 4.066406 5.972657 4.066406 9.804688zm0 0"/><path d="m90.699219 147.5625v89.089844h-2.027344c-3.695313 0-6.691406-2.996094-6.691406-6.691406v-95.269532c1.757812.695313 3.34375 1.746094 4.664062 3.0625 2.507813 2.507813 4.054688 5.984375 4.054688 9.808594zm0 0"/></g><path d="m473.578125 159.636719v209.914062h-93.5625v-18.988281c0-7.261719-3.167969-14.160156-8.671875-18.898438l-.046875-.039062c-5.496094-4.742188-8.660156-11.636719-8.660156-18.898438v-136.699218c0-7.660156 6.210937-13.863282 13.863281-13.863282 1.816406 0 3.566406.351563 5.152344.992188 1.757812.695312 3.335937 1.746094 4.65625 3.0625 2.515625 2.507812 4.0625 5.984375 4.0625 9.808594v-16.390625c0-7.660157 6.214844-13.871094 13.875-13.871094 1.816406 0 3.554687.351563 5.144531.988281 1.757813.699219 3.335937 1.757813 4.652344 3.078125 2.507812 2.503907 4.066406 5.972657 4.066406 9.804688v-12.074219c0-7.660156 6.210937-13.863281 13.871094-13.863281 1.808593 0 3.546875.351562 5.144531.992187 1.757812.695313 3.347656 1.746094 4.664062 3.0625 2.507813 2.507813 4.054688 5.984375 4.054688 9.808594v12.074219c0-7.660157 6.210938-13.871094 13.875-13.871094 3.832031 0 7.289062 1.546875 9.804688 4.066406 2.507812 2.503907 4.054687 5.972657 4.054687 9.804688zm0 0" fill="#fdd7bd"/><path d="m473.578125 192.957031v111.0625l-36.316406-1.214843c-6.449219-.214844-11.566407-5.507813-11.566407-11.957032 0-6.222656 3.777344-11.824218 9.539063-14.164062l18.046875-7.332032c6.84375-2.773437 11.308594-9.425781 11.308594-16.796874v-46.613282c0-5.941406 3.734375-11.007812 8.988281-12.984375zm0 0" fill="#fac5aa"/><path d="m434.6875 367.980469v-70.144531c0-6.222657 3.769531-11.824219 9.535156-14.164063l18.046875-7.332031c6.839844-2.777344 11.308594-9.417969 11.308594-16.800782v-50.238281c0-7.660156 6.210937-13.867187 13.871094-13.867187 7.65625 0 13.867187 6.207031 13.867187 13.867187v103.027344c0 7.492187-3.367187 14.582031-9.167968 19.316406-5.800782 4.734375-9.167969 11.828125-9.167969 19.316407v18.589843" fill="#fdd7bd"/><path d="m504.269531 380.285156v111.832032h-141.632812v-111.832032c0-5.933594 4.800781-10.734375 10.726562-10.734375h120.171875c5.929688 0 10.734375 4.800781 10.734375 10.734375zm0 0" fill="#87dbff"/><path d="m504.269531 380.285156v48.640625h-141.632812v-48.640625c0-5.933594 4.800781-10.734375 10.726562-10.734375h120.171875c5.929688 0 10.734375 4.800781 10.734375 10.734375zm0 0" fill="#6fc7ff"/><path d="m390.371094 176.027344v60.625h-2.027344c-3.695312 0-6.691406-2.996094-6.691406-6.691406v-66.808594c1.757812.699218 3.335937 1.75 4.652344 3.066406 2.515624 2.507812 4.066406 5.984375 4.066406 9.808594zm0 0" fill="#fac5aa"/><path d="m418.105469 159.636719v77.015625h-2.027344c-3.695313 0-6.691406-2.996094-6.691406-6.691406v-83.207032c1.757812.699219 3.335937 1.757813 4.652343 3.078125 2.507813 2.503907 4.066407 5.972657 4.066407 9.804688zm0 0" fill="#fac5aa"/><path d="m445.84375 147.5625v89.089844h-2.027344c-3.695312 0-6.695312-2.996094-6.695312-6.691406v-95.269532c1.761718.695313 3.347656 1.746094 4.664062 3.0625 2.507813 2.507813 4.058594 5.984375 4.058594 9.808594zm0 0" fill="#fac5aa"/><path d="m296.125 32.402344v209.910156h-93.5625v-18.988281c0-7.261719-3.167969-14.160157-8.667969-18.898438l-.050781-.039062c-5.492188-4.742188-8.660156-11.636719-8.660156-18.894531v-136.703126c0-7.660156 6.210937-13.863281 13.863281-13.863281 1.816406 0 3.566406.351563 5.152344.992188 1.761719.699219 3.335937 1.746093 4.65625 3.066406 2.515625 2.503906 4.066406 5.980469 4.066406 9.804687v-16.386718c0-7.664063 6.210937-13.875 13.871094-13.875 1.816406 0 3.554687.351562 5.144531.988281 1.757812.699219 3.335938 1.757813 4.652344 3.078125 2.507812 2.503906 4.066406 5.972656 4.066406 9.808594v-12.078125c0-7.660157 6.210938-13.863281 13.871094-13.863281 1.808594 0 3.546875.351562 5.144531.992187 1.757813.699219 3.347656 1.746094 4.664063 3.0625 2.507812 2.507813 4.054687 5.984375 4.054687 9.808594v12.078125c0-7.664063 6.214844-13.875 13.875-13.875 3.835937 0 7.289063 1.546875 9.808594 4.066406 2.503906 2.503906 4.050781 5.972656 4.050781 9.808594zm0 0" fill="#fdd7bd"/><path d="m296.125 65.71875v111.0625l-36.316406-1.214844c-6.449219-.214844-11.5625-5.507812-11.5625-11.957031 0-6.222656 3.773437-11.824219 9.535156-14.164063l18.050781-7.328124c6.839844-2.777344 11.304688-9.429688 11.304688-16.800782v-46.613281c0-5.941406 3.734375-11.003906 8.988281-12.984375zm0 0" fill="#fac5aa"/><path d="m257.234375 240.742188v-70.144532c0-6.222656 3.769531-11.824218 9.535156-14.164062l18.050781-7.332032c6.835938-2.777343 11.308594-9.417968 11.308594-16.800781v-50.238281c0-7.660156 6.207032-13.867188 13.867188-13.867188s13.867187 6.207032 13.867187 13.867188v103.027344c0 7.492187-3.367187 14.582031-9.167969 19.316406-5.800781 4.734375-9.167968 11.828125-9.167968 19.316406v18.59375" fill="#fdd7bd"/><path d="m326.816406 253.046875v239.070313h-141.632812v-239.070313c0-5.929687 4.804687-10.734375 10.726562-10.734375h120.171875c5.933594 0 10.734375 4.804688 10.734375 10.734375zm0 0" fill="#87dbff"/><path d="m326.816406 253.046875v48.640625h-141.632812v-48.640625c0-5.929687 4.804687-10.734375 10.726562-10.734375h120.171875c5.933594 0 10.734375 4.804688 10.734375 10.734375zm0 0" fill="#6fc7ff"/><path d="m212.917969 48.789062v60.625h-2.027344c-3.695313 0-6.691406-2.996093-6.691406-6.691406v-66.804687c1.757812.699219 3.335937 1.746093 4.652343 3.066406 2.519532 2.503906 4.066407 5.980469 4.066407 9.804687zm0 0" fill="#fac5aa"/><path d="m240.652344 32.402344v77.011718h-2.023438c-3.695312 0-6.695312-2.996093-6.695312-6.691406v-83.207031c1.757812.699219 3.335937 1.757813 4.65625 3.078125 2.507812 2.503906 4.0625 5.972656 4.0625 9.808594zm0 0" fill="#fac5aa"/><path d="m268.390625 20.324219v89.089843h-2.027344c-3.695312 0-6.691406-2.996093-6.691406-6.691406v-95.269531c1.757813.699219 3.34375 1.746094 4.664063 3.0625 2.507812 2.507813 4.054687 5.984375 4.054687 9.808594zm0 0" fill="#fac5aa"/><path d="m316.085938 236.355469h-3.0625v-11.101563c0-5.261718 2.335937-10.1875 6.410156-13.511718 7.578125-6.183594 11.925781-15.339844 11.925781-25.121094v-103.027344c0-11.777344-9.582031-21.359375-21.359375-21.359375-2.222656 0-4.363281.34375-6.378906.972656v-29.273437c0-11.777344-9.582032-21.359375-21.359375-21.359375-2.777344 0-5.421875.546875-7.859375 1.515625-3.117188-7.941406-10.839844-13.589844-19.875-13.589844s-16.761719 5.648438-19.875 13.589844c-2.4375-.96875-5.085938-1.515625-7.863282-1.515625-10.457031 0-19.167968 7.5625-20.992187 17.5-2.121094-.707031-4.386719-1.109375-6.742187-1.109375-11.777344 0-21.359376 9.582031-21.359376 21.359375v80.042969c0 4.136718 3.351563 7.492187 7.488282 7.492187 4.136718 0 7.492187-3.351563 7.492187-7.492187v-80.042969c0-3.515625 2.859375-6.375 6.378907-6.375 3.515624 0 6.375 2.859375 6.375 6.375v59.550781c0 4.136719 3.355468 7.492188 7.492187 7.492188s7.492187-3.351563 7.492187-7.492188v-75.941406c0-3.519532 2.859376-6.378906 6.375-6.378906 3.519532 0 6.378907 2.859374 6.378907 6.378906v75.941406c0 4.136719 3.355469 7.492188 7.492187 7.492188 4.136719 0 7.488282-3.351563 7.488282-7.492188v-88.015625c0-3.519531 2.863281-6.378906 6.378906-6.378906s6.378906 2.859375 6.378906 6.378906v88.015625c0 4.136719 3.351562 7.492188 7.488281 7.492188s7.492188-3.351563 7.492188-7.492188v-75.941406c0-3.519532 2.859375-6.378906 6.378906-6.378906 3.515625 0 6.375 2.859374 6.375 6.378906v99.902344c0 4.351562-2.605469 8.21875-6.636719 9.859374l-18.046875 7.332032c-8.632812 3.503906-14.210937 11.789062-14.210937 21.105468v6.710938c0 4.140625 3.355468 7.492188 7.492187 7.492188s7.492188-3.351563 7.492188-7.492188v-6.710938c0-3.191406 1.910156-6.027343 4.863281-7.226562l18.050781-7.332031c9.707031-3.941407 15.980469-13.261719 15.980469-23.738281v-50.242188c0-3.515625 2.859375-6.378906 6.375-6.378906 3.519531 0 6.378906 2.863281 6.378906 6.378906v103.027344c0 5.261718-2.335937 10.1875-6.414062 13.511718-7.578125 6.183594-11.921875 15.339844-11.921875 25.121094v11.101563h-87.988281v-11.503907c0-9.449218-4.105469-18.402343-11.316407-24.613281-3.851562-3.316406-6.058593-8.132812-6.058593-13.214843v-23.363282c0-4.136718-3.355469-7.492187-7.492188-7.492187s-7.492188 3.355469-7.492188 7.492187v23.363282c0 9.449218 4.109376 18.402343 11.320313 24.613281 3.851563 3.316406 6.058594 8.132812 6.058594 13.214843v11.546876c-9.652344.445312-17.378907 8.414062-17.378907 18.175781v237.539062c0 4.136719 3.355469 7.492188 7.492188 7.492188s7.492188-3.355469 7.492188-7.492188v-181.402343h126.648437v181.402343c0 4.136719 3.355469 7.492188 7.492187 7.492188 4.136719 0 7.492188-3.355469 7.492188-7.492188v-237.539062c-.003906-10.046875-8.179688-18.21875-18.226562-18.21875zm-123.410157 59.371093v-41.148437c0-1.789063 1.453125-3.242187 3.238281-3.242187h120.175782c1.785156 0 3.238281 1.453124 3.238281 3.242187v41.148437zm0 0"/><path d="m493.777344 362.0625h-3.0625v-11.101562c0-5.261719 2.335937-10.1875 6.414062-13.511719 7.574219-6.183594 11.921875-15.339844 11.921875-25.121094v-103.027344c0-11.777343-9.582031-21.359375-21.359375-21.359375-2.222656 0-4.363281.34375-6.378906.972656v-29.277343c0-11.773438-9.582031-21.355469-21.359375-21.355469-2.777344 0-5.425781.546875-7.859375 1.515625-3.117188-7.941406-10.839844-13.589844-19.875-13.589844s-16.761719 5.648438-19.878906 13.589844c-2.433594-.96875-5.082032-1.515625-7.859375-1.515625-10.460938 0-19.167969 7.558594-20.992188 17.5-2.125-.710938-4.386719-1.109375-6.746093-1.109375-11.777344 0-21.359376 9.582031-21.359376 21.359375v136.699219c0 9.449219 4.109376 18.402343 11.21875 24.523437.015626.015625.085938.074219.101563.089844 3.851563 3.316406 6.058594 8.132812 6.058594 13.214844v11.542968c-9.65625.445313-17.378907 8.417969-17.378907 18.179688v111.832031c0 4.136719 3.355469 7.492188 7.492188 7.492188s7.492188-3.355469 7.492188-7.492188v-55.699219h126.648437v55.699219c0 4.136719 3.355469 7.492188 7.492187 7.492188 4.136719 0 7.492188-3.355469 7.492188-7.492188v-111.832031c0-10.046875-8.175781-18.21875-18.222656-18.21875zm-123.410156 59.371094v-41.148438c0-1.789062 1.453124-3.242187 3.238281-3.242187h60.085937c4.136719 0 7.492188-3.351563 7.492188-7.492188 0-4.136719-3.355469-7.488281-7.492188-7.488281h-45.945312v-11.503906c0-9.449219-4.105469-18.402344-11.21875-24.523438-.015625-.015625-.082032-.074218-.097656-.089844-3.855469-3.316406-6.0625-8.132812-6.0625-13.214843v-136.699219c0-3.515625 2.863281-6.378906 6.378906-6.378906s6.375 2.863281 6.375 6.378906v59.550781c0 4.136719 3.355468 7.492188 7.492187 7.492188s7.492188-3.351563 7.492188-7.492188v-75.945312c0-3.515625 2.859375-6.375 6.378906-6.375 3.515625 0 6.375 2.859375 6.375 6.375v75.945312c0 4.136719 3.355469 7.492188 7.492187 7.492188 4.136719 0 7.492188-3.351563 7.492188-7.492188v-88.015625c0-3.519531 2.859375-6.378906 6.375-6.378906 3.519531 0 6.378906 2.859375 6.378906 6.378906v88.015625c0 4.136719 3.351563 7.492188 7.492188 7.492188 4.136718 0 7.488281-3.351563 7.488281-7.492188v-75.945312c0-3.515625 2.863281-6.375 6.378906-6.375s6.378907 2.859375 6.378907 6.375v99.90625c0 4.351562-2.605469 8.21875-6.640626 9.859375l-18.046874 7.332031c-8.632813 3.503906-14.210938 11.789063-14.210938 21.105469v6.710937c0 4.136719 3.355469 7.492188 7.492188 7.492188 4.136718 0 7.492187-3.351563 7.492187-7.492188v-6.710937c0-3.191406 1.910156-6.027344 4.863281-7.226563l18.050782-7.332031c9.707031-3.941406 15.980468-13.261719 15.980468-23.738281v-50.242188c0-3.515625 2.859375-6.378906 6.378906-6.378906 3.515626 0 6.375 2.863281 6.375 6.378906v103.03125c0 5.257813-2.335937 10.183594-6.414062 13.511719-7.578125 6.183594-11.921875 15.335938-11.921875 25.117188v11.101562h-10.320313c-4.136718 0-7.488281 3.351562-7.488281 7.492188 0 4.136718 3.351563 7.488281 7.488281 7.488281h28.367188c1.785156 0 3.238281 1.453125 3.238281 3.242187v41.148438zm0 0"/><path d="m138.394531 362.0625h-3.066406v-11.101562c0-5.261719 2.335937-10.1875 6.414063-13.511719 7.578124-6.183594 11.921874-15.339844 11.921874-25.121094v-103.027344c0-11.777343-9.578124-21.359375-21.359374-21.359375-2.21875 0-4.363282.34375-6.375.972656v-29.277343c0-11.773438-9.582032-21.355469-21.359376-21.355469-2.777343 0-5.425781.546875-7.863281 1.515625-3.113281-7.941406-10.839843-13.589844-19.875-13.589844-9.035156 0-16.761719 5.648438-19.875 13.589844-2.4375-.96875-5.085937-1.515625-7.863281-1.515625-10.457031 0-19.167969 7.558594-20.992188 17.5-2.121093-.710938-4.382812-1.109375-6.742187-1.109375-11.777344 0-21.359375 9.582031-21.359375 21.359375v136.699219c0 9.449219 4.105469 18.402343 11.21875 24.523437.015625.015625.082031.074219.097656.089844 3.851563 3.316406 6.0625 8.132812 6.0625 13.214844v11.542968c-9.65625.445313-17.378906 8.417969-17.378906 18.179688v111.832031c0 4.136719 3.355469 7.492188 7.492188 7.492188 4.136718 0 7.488281-3.355469 7.488281-7.492188v-55.699219h11.308593c4.136719 0 7.492188-3.351562 7.492188-7.488281s-3.355469-7.492187-7.492188-7.492187h-11.308593v-41.152344c0-1.785156 1.453125-3.238281 3.238281-3.238281h120.175781c1.785157 0 3.238281 1.453125 3.238281 3.238281v41.152344h-86.046874c-4.136719 0-7.492188 3.351562-7.492188 7.492187 0 4.136719 3.355469 7.488281 7.492188 7.488281h86.046874v55.699219c0 4.136719 3.355469 7.492188 7.492188 7.492188s7.488281-3.355469 7.488281-7.492188v-111.832031c0-10.046875-8.171875-18.21875-18.21875-18.21875zm-106.035156 0v-11.503906c0-9.449219-4.105469-18.402344-11.21875-24.523438-.015625-.015625-.082031-.074218-.097656-.089844-3.851563-3.316406-6.0625-8.132812-6.0625-13.214843v-136.699219c0-3.515625 2.863281-6.378906 6.378906-6.378906 3.519531 0 6.378906 2.863281 6.378906 6.378906v59.550781c0 4.136719 3.351563 7.492188 7.488281 7.492188 4.136719 0 7.492188-3.351563 7.492188-7.492188v-75.945312c0-3.515625 2.859375-6.375 6.378906-6.375 3.515625 0 6.375 2.859375 6.375 6.375v75.945312c0 4.136719 3.355469 7.492188 7.492188 7.492188 4.136718 0 7.492187-3.351563 7.492187-7.492188v-88.015625c0-3.519531 2.859375-6.378906 6.378907-6.378906 3.515624 0 6.375 2.859375 6.375 6.378906v88.015625c0 4.136719 3.355468 7.492188 7.492187 7.492188s7.488281-3.351563 7.488281-7.492188v-75.945312c0-3.515625 2.863282-6.375 6.378906-6.375 3.519532 0 6.378907 2.859375 6.378907 6.375v99.90625c0 4.351562-2.605469 8.21875-6.636719 9.859375l-18.050781 7.332031c-8.628907 3.503906-14.207031 11.789063-14.207031 21.105469v6.710937c0 4.136719 3.351562 7.492188 7.488281 7.492188s7.492187-3.351563 7.492187-7.492188v-6.710937c0-3.191406 1.910156-6.027344 4.863282-7.226563l18.050781-7.332031c9.707031-3.941406 15.980469-13.261719 15.980469-23.738281v-50.242188c0-3.515625 2.859374-6.378906 6.378906-6.378906 3.515625 0 6.375 2.863281 6.375 6.378906v103.03125c0 5.257813-2.335938 10.183594-6.410156 13.511719-7.578126 6.183594-11.925782 15.335938-11.925782 25.117188v11.101562zm0 0"/></svg>