<svg xmlns="http://www.w3.org/2000/svg" viewBox="0 0 512 512" width="512" height="512">
	<style>
		tspan { white-space:pre }
		.shp0 { fill: #3535d7 } 
		.shp1 { fill: #4949d9 } 
		.shp2 { fill: #ffcc5b } 
		.shp3 { fill: #fdbc4b } 
		.shp4 { fill: #ffdb70 } 
	</style>
	<path id="Layer" class="shp0" d="M151.35 221.25L39.59 431.81L141.08 422.43L190.2 511.74L301.96 301.18L151.35 221.25Z" />
	<g id="Layer">
		<path id="Layer" class="shp1" d="M164.15 450.43C167.29 443.7 164.01 435.65 157.45 432.16L151.02 428.74C144.58 425.07 142.14 416.93 145.64 410.34C149.19 403.63 157.54 401.07 164.25 404.62L182.42 414.27C188.04 417.25 195.08 415.09 197.98 409.44L198.42 408.58C201.75 403.25 199.78 396.21 194.25 393.28L139.88 364.43C133.26 360.91 130.01 352.9 133.1 346.14C136.5 338.96 145.11 336.13 152.04 339.81L202.47 366.58C208.09 369.55 215.13 367.39 218.1 361.78L218.39 361.04L218.47 360.88C221.69 354.99 219.43 347.6 213.5 344.45L185.21 329.44C178.58 325.92 175.34 317.9 178.47 311.07C181.85 303.97 190.49 301.06 197.42 304.74L228.66 321.33C234.5 324.43 241.48 321.84 244.5 315.95C244.55 315.87 244.55 315.87 244.58 315.79C244.63 315.71 244.63 315.71 244.66 315.63C247.85 309.82 246.09 302.59 240.23 299.5L206.52 281.62C199.98 278.14 196.73 270.13 199.82 263.38C203.22 256.19 211.83 253.36 218.76 257.04L301.93 301.18L190.17 511.74L159.37 455.76C161.35 454.42 163.08 452.75 164.15 450.43Z" />
		<path id="Layer" class="shp1" d="M360.41 221.25L472.17 431.81L370.68 422.43L321.56 511.74L209.8 301.18L360.41 221.25Z" />
	</g>
	<path id="Layer" class="shp0" d="M347.61 450.43C344.47 443.7 347.75 435.65 354.31 432.16L360.74 428.74C367.18 425.07 369.62 416.93 366.12 410.34C362.57 403.63 354.22 401.07 347.51 404.62L329.34 414.27C323.72 417.25 316.68 415.09 313.78 409.44L313.34 408.58C310.01 403.25 311.98 396.21 317.51 393.28L371.9 364.42C378.52 360.9 381.77 352.88 378.68 346.13C375.27 338.94 366.66 336.11 359.74 339.79L309.3 366.56C303.69 369.54 296.65 367.38 293.67 361.76L293.38 361.02L293.3 360.86C290.09 354.98 292.34 347.58 298.28 344.43L326.57 329.42C333.19 325.9 336.44 317.89 333.3 311.06C329.93 303.95 321.29 301.04 314.36 304.72L283.08 321.34C277.24 324.45 270.26 321.86 267.24 315.97C267.19 315.89 267.19 315.89 267.16 315.81C267.11 315.73 267.11 315.73 267.08 315.65C263.9 309.84 265.66 302.61 271.51 299.52L305.22 281.63C311.77 278.16 315.02 270.14 311.93 263.39C308.52 256.21 299.91 253.38 292.98 257.06L209.82 301.2L321.58 511.76L352.38 455.78C350.41 454.42 348.68 452.75 347.61 450.43Z" />
	<path id="Layer" class="shp2" d="M255.88 373.47C152.61 373.47 69.14 290 69.14 186.74C69.14 83.47 152.61 0 255.88 0C359.15 0 442.62 83.47 442.62 186.74C442.62 290 359.15 373.47 255.88 373.47Z" />
	<path id="Layer" class="shp3" d="M281.21 165.31L162.87 165.31C153.67 165.31 146.12 157.76 146.12 148.56L146.25 147.41L146.25 147.15C146.12 137.44 154.04 129.5 163.77 129.5L245.78 129.5C256.65 129.5 266.25 121.46 266.89 110.58C267.4 99.2 258.33 89.6 246.94 89.6L160.06 89.6C150.47 89.6 143.3 81.55 143.43 71.95C143.43 71.82 143.43 71.82 143.43 71.7C143.43 71.57 143.43 71.57 143.43 71.44C143.3 61.86 150.46 53.79 160.06 53.79L250.97 53.79C261.7 53.79 271.3 45.74 271.94 34.99C272.46 23.49 263.38 14.02 251.99 14.02L185.42 14.02C117.53 42 69.69 108.75 69.69 186.74C69.69 264.72 117.53 331.46 185.43 359.41L269.96 359.41C280.7 359.41 290.3 351.36 290.94 340.61C291.45 329.1 282.38 319.65 270.98 319.65L174.82 319.63C163.48 319.63 154.34 310.14 154.95 298.66C155.51 287.9 165.18 279.82 175.94 279.82L213.22 279.82C223.94 279.52 232.6 270.74 232.6 259.94C232.6 248.94 223.66 239.98 212.65 239.98L156.14 239.98C146.94 239.98 139.38 232.45 139.51 223.23L139.51 221.82C138.87 212.75 146.17 205.07 155.24 205.07L280.06 205.07C290.92 205.07 300.52 197.02 301.16 186.27C301.67 174.78 292.58 165.31 281.21 165.31Z" />
	<path id="Layer" class="shp4" d="M255.88 320.02C182.38 320.02 122.58 260.21 122.58 186.72C122.58 113.23 182.38 53.44 255.88 53.44C329.38 53.44 389.18 113.25 389.18 186.74C389.18 260.22 329.38 320.02 255.88 320.02Z" />
	<g id="Layer">
		<path id="Layer" class="shp1" d="M191.66 239.5C189.56 241.41 188.33 243.68 187.35 246.08C186.42 248.5 185.75 251.04 185.93 253.89C186.12 256.75 187.29 259.9 187.45 262.74C187.48 263.1 187.38 263.46 187.4 263.81C182.02 256.7 177.43 249.17 173.64 241.33C173.74 239.74 173.98 238.24 174.55 236.91C175.48 234.61 177.45 232.88 178.7 230.78C179.93 228.69 180.54 226.29 181.06 223.84C181.54 221.36 181.93 218.85 181.69 215.9C181.46 215.76 181.22 215.62 181 215.46C178.62 216.72 176.97 218.5 175.53 220.45C174.15 222.43 172.97 224.58 172.52 227.2C172.1 229.84 172.52 232.96 172.06 235.54C171.98 236.03 171.75 236.46 171.62 236.94C168.17 229.1 165.48 220.99 163.58 212.72C164.01 210.93 164.6 209.26 165.58 207.95C166.92 206.08 169.16 204.98 170.76 203.38C172.34 201.74 173.38 199.7 174.34 197.55C175.27 195.36 176.1 193.12 176.39 190.3C176.2 190.11 176.01 189.92 175.82 189.73C173.32 190.32 171.42 191.58 169.69 193.04C167.99 194.53 166.47 196.26 165.53 198.54C164.62 200.86 164.41 203.84 163.45 206.08C163.21 206.69 162.82 207.15 162.5 207.7C160.94 199.5 160.12 191.18 160.07 182.85C160.92 180.88 161.91 179.09 163.35 177.9C164.98 176.5 167.29 176.05 169.1 174.94C170.89 173.82 172.25 172.13 173.54 170.35C174.81 168.51 175.99 166.58 176.78 163.95C176.63 163.71 176.49 163.49 176.34 163.25C173.88 163.18 171.88 163.94 169.99 164.88C168.14 165.89 166.38 167.1 165.08 169.06C163.78 171.02 163.05 173.76 161.72 175.62C161.27 176.27 160.71 176.75 160.17 177.26C160.46 169.12 161.46 160.99 163.19 152.96C163.27 152.83 163.35 152.72 163.43 152.59C164.73 150.62 166.17 148.88 167.98 148C169.75 147.07 171.96 147.25 173.85 146.64C175.72 146.02 177.29 144.74 178.82 143.31C180.33 141.84 181.78 140.26 183.02 137.87C182.92 137.62 182.84 137.34 182.74 137.07C180.49 136.42 178.5 136.66 176.58 137.1C174.68 137.62 172.82 138.37 171.26 139.92C169.69 141.5 168.47 143.95 166.89 145.36C166.2 146.02 165.45 146.45 164.66 146.86C166.78 138.9 169.64 131.06 173.22 123.46C173.29 123.55 173.37 123.63 173.43 123.73C173.74 123.41 174.06 123.1 174.36 122.78C175.96 121.2 177.62 119.87 179.43 119.47C181.24 119.01 183.21 119.73 185.03 119.58C186.86 119.42 188.55 118.54 190.25 117.5C191.93 116.4 193.59 115.17 195.22 113.09C195.21 112.8 195.18 112.51 195.16 112.24C193.26 111.07 191.42 110.83 189.56 110.83C187.72 110.88 185.88 111.18 184.12 112.34C182.36 113.52 180.73 115.62 179 116.61C178.15 117.14 177.26 117.44 176.36 117.63C176.39 117.46 176.39 117.3 176.42 117.12C182.25 106.3 189.66 96.08 198.66 86.77C190.14 95.01 182.89 104.1 176.9 113.78C176.92 113.49 177.05 113.15 177.05 112.86C177.19 110.78 177.29 108.72 177.1 106.77C176.47 102.94 175.43 99.25 172.6 96.13C172.3 96.24 171.99 96.35 171.69 96.46C168.68 101.76 167.9 106.38 167.88 110.61C168.01 112.67 168.47 114.56 169.1 116.37C169.61 118.24 170.54 119.89 171.69 121.41C171.85 121.63 172.01 121.84 172.18 122.06C168.76 128.58 165.88 135.33 163.56 142.22C163.54 142.16 163.56 142.08 163.54 142C163.08 139.87 162.63 137.71 161.94 135.71C160.34 131.86 158.39 128.19 154.84 125.46C154.57 125.63 154.31 125.81 154.04 125.98C152.42 132.06 152.81 137.04 153.9 141.42C154.54 143.54 155.51 145.41 156.6 147.17C157.59 149.01 158.95 150.54 160.49 151.9C160.54 151.94 160.58 151.98 160.62 152.02C158.86 158.86 157.61 165.82 156.9 172.85C155.96 170.78 155 168.74 153.85 166.9C151.26 163.22 148.39 159.78 144.17 157.57C143.94 157.79 143.72 158.02 143.5 158.26C143.4 164.85 145.05 169.9 147.26 174.22C148.46 176.29 149.91 178.03 151.46 179.63C152.82 181.2 154.47 182.38 156.22 183.44C156.04 190.37 156.36 197.33 157.21 204.24C155.8 202.45 154.41 200.64 152.87 199.09C149.3 195.82 145.53 192.82 140.73 191.26C140.55 191.54 140.39 191.81 140.22 192.08C141.75 198.85 144.73 203.73 148.09 207.71C149.83 209.6 151.77 211.1 153.77 212.43C155.37 213.63 157.16 214.4 158.98 215.09C160.34 221.84 162.22 228.51 164.58 235.07C162.78 233.63 161 232.16 159.13 230.93C154.62 228.29 149.99 225.92 144.68 225.22C144.57 225.52 144.47 225.82 144.36 226.13C147.64 232.74 151.93 237.14 156.42 240.53C158.71 242.11 161.1 243.25 163.51 244.21C165.27 245.01 167.11 245.36 168.94 245.7C171.82 252 175.21 258.14 179.08 264.06C176.94 263.04 174.81 261.95 172.66 261.15C167.29 259.39 161.88 257.87 156.2 258.11C156.17 258.45 156.14 258.77 156.1 259.1C161.18 265.18 166.79 268.78 172.36 271.31C175.16 272.45 177.96 273.12 180.74 273.6C182.57 274 184.36 273.94 186.17 273.95C189.18 277.79 192.42 281.5 195.88 285.09C197.7 283.26 199.54 281.42 201.37 279.6C197.38 275.76 193.69 271.71 190.26 267.52C190.09 266.14 190.02 264.82 190.22 263.55C190.55 260.88 192.07 258.58 192.81 256.08C193.51 253.57 193.56 250.91 193.53 248.22C193.45 245.52 193.27 242.82 192.41 239.82C192.17 239.7 191.91 239.6 191.66 239.5Z" />
		<path id="Layer" class="shp1" d="M320.1 239.5C322.2 241.41 323.43 243.68 324.41 246.08C325.34 248.5 326.01 251.04 325.83 253.89C325.64 256.75 324.47 259.9 324.31 262.74C324.28 263.1 324.38 263.46 324.36 263.81C329.74 256.7 334.33 249.17 338.12 241.33C338.02 239.74 337.78 238.24 337.21 236.91C336.28 234.61 334.31 232.88 333.06 230.78C331.83 228.69 331.22 226.29 330.7 223.84C330.22 221.36 329.83 218.85 330.07 215.9C330.3 215.76 330.54 215.62 330.76 215.46C333.14 216.72 334.79 218.5 336.23 220.45C337.61 222.43 338.79 224.58 339.24 227.2C339.66 229.84 339.24 232.96 339.7 235.54C339.78 236.03 340.01 236.46 340.14 236.94C343.59 229.1 346.28 220.99 348.18 212.72C347.75 210.93 347.16 209.26 346.18 207.95C344.84 206.08 342.6 204.98 341 203.38C339.42 201.74 338.38 199.7 337.42 197.55C336.49 195.36 335.66 193.12 335.37 190.3C335.56 190.11 335.75 189.92 335.94 189.73C338.44 190.32 340.34 191.58 342.07 193.04C343.77 194.53 345.29 196.26 346.23 198.54C347.14 200.86 347.35 203.84 348.31 206.08C348.55 206.69 348.94 207.15 349.26 207.7C350.82 199.5 351.64 191.18 351.69 182.85C350.84 180.88 349.85 179.09 348.41 177.9C346.78 176.5 344.47 176.05 342.66 174.94C340.87 173.82 339.51 172.13 338.22 170.35C336.95 168.51 335.77 166.58 334.98 163.95C335.13 163.71 335.27 163.49 335.42 163.25C337.88 163.18 339.88 163.94 341.77 164.88C343.62 165.89 345.38 167.1 346.68 169.06C347.98 171.02 348.71 173.76 350.04 175.62C350.49 176.27 351.05 176.75 351.59 177.26C351.3 169.12 350.3 160.99 348.57 152.96C348.49 152.83 348.41 152.72 348.33 152.59C347.03 150.62 345.59 148.88 343.78 148C342.01 147.07 339.8 147.25 337.91 146.64C336.04 146.02 334.47 144.74 332.94 143.31C331.43 141.84 329.98 140.26 328.74 137.87C328.84 137.62 328.92 137.34 329.02 137.07C331.27 136.42 333.26 136.66 335.18 137.1C337.08 137.62 338.94 138.37 340.5 139.92C342.07 141.5 343.29 143.95 344.87 145.36C345.56 146.02 346.31 146.45 347.1 146.86C345.02 138.91 342.17 131.07 338.57 123.47C338.5 123.57 338.42 123.65 338.36 123.74C338.06 123.42 337.74 123.12 337.43 122.8C335.83 121.22 334.17 119.89 332.36 119.49C330.55 119.02 328.58 119.74 326.76 119.6C324.94 119.44 323.24 118.56 321.54 117.52C319.86 116.42 318.2 115.18 316.57 113.1C316.58 112.82 316.62 112.53 316.63 112.26C318.54 111.09 320.38 110.85 322.23 110.85C324.07 110.9 325.91 111.2 327.67 112.35C329.43 113.54 331.06 115.63 332.79 116.62C333.64 117.15 334.54 117.46 335.43 117.65C335.4 117.49 335.38 117.31 335.37 117.15C329.54 106.34 322.14 96.11 313.13 86.8C321.66 95.04 328.9 104.13 334.89 113.81C334.87 113.52 334.74 113.18 334.74 112.9C334.6 110.82 334.5 108.75 334.7 106.8C335.32 102.98 336.36 99.28 339.19 96.16C339.5 96.27 339.8 96.38 340.1 96.5C343.11 101.79 343.9 106.42 343.91 110.64C343.78 112.7 343.32 114.59 342.7 116.4C342.18 118.27 341.26 119.92 340.1 121.44C339.94 121.66 339.78 121.87 339.61 122.1C343.03 128.61 345.91 135.36 348.23 142.26C348.25 142.19 348.23 142.11 348.25 142.03C348.68 139.87 349.13 137.71 349.82 135.71C351.42 131.86 353.37 128.19 356.92 125.46C357.19 125.63 357.46 125.79 357.74 125.97C359.35 132.05 358.97 137.02 357.9 141.41C357.26 143.52 356.28 145.39 355.19 147.15C354.2 148.99 352.84 150.53 351.3 151.89C351.26 151.92 351.21 151.97 351.18 152C352.94 158.85 354.18 165.81 354.89 172.83C355.83 170.77 356.79 168.72 357.94 166.88C360.54 163.2 363.4 159.76 367.62 157.55C367.85 157.78 368.07 158 368.3 158.22C368.39 164.82 366.74 169.87 364.54 174.19C363.34 176.26 361.88 178 360.33 179.6C358.97 181.17 357.32 182.35 355.58 183.41C355.75 190.34 355.43 197.3 354.58 204.21C355.99 202.42 357.38 200.61 358.92 199.06C362.49 195.79 366.26 192.78 371.06 191.23C371.24 191.5 371.4 191.78 371.58 192.05C370.04 198.82 367.06 203.7 363.7 207.68C361.96 209.57 360.02 211.07 358.02 212.4C356.42 213.6 354.63 214.37 352.81 215.06C351.45 221.81 349.58 228.48 347.21 235.04C349.02 233.6 350.79 232.13 352.66 230.9C357.18 228.26 361.8 225.89 367.11 225.18C367.22 225.49 367.32 225.79 367.43 226.1C364.15 232.7 359.86 237.1 355.37 240.5C353.08 242.08 350.7 243.22 348.28 244.18C346.52 244.98 344.68 245.33 342.86 245.66C339.98 251.97 336.58 258.11 332.71 264.03C334.86 263.01 336.98 261.92 339.13 261.12C344.5 259.36 349.91 257.84 355.59 258.08C355.62 258.42 355.66 258.74 355.69 259.07C350.62 265.15 345 268.75 339.43 271.28C336.63 272.42 333.83 273.09 331.05 273.57C329.22 273.97 327.43 273.9 325.62 273.92C322.62 277.76 319.37 281.47 315.91 285.06C314.09 283.23 312.25 281.39 310.42 279.57C314.41 275.73 318.1 271.68 321.53 267.49C321.7 266.11 321.77 264.78 321.58 263.52C321.24 260.85 319.72 258.54 318.98 256.05C318.28 253.54 318.23 250.88 318.26 248.19C318.34 245.49 318.52 242.78 319.38 239.79C319.59 239.7 319.85 239.6 320.1 239.5Z" />
	</g>
	<path id="Layer" class="shp1" d="M253.24 98.46C249.4 109.18 242.33 118.54 232.01 126.59C226.74 130.7 221.78 133.73 216.94 136.4L216.94 167.2C227.91 162.14 238.17 156.13 246.87 147.98L246.87 274.98L280.57 274.98L280.57 98.46L253.24 98.46Z" />
	<g id="Layer">
	</g>
	<g id="Layer">
	</g>
	<g id="Layer">
	</g>
	<g id="Layer">
	</g>
	<g id="Layer">
	</g>
	<g id="Layer">
	</g>
	<g id="Layer">
	</g>
	<g id="Layer">
	</g>
	<g id="Layer">
	</g>
	<g id="Layer">
	</g>
	<g id="Layer">
	</g>
	<g id="Layer">
	</g>
	<g id="Layer">
	</g>
	<g id="Layer">
	</g>
	<g id="Layer">
	</g>
</svg>