<svg height="511pt" viewBox="1 -6 511.999 511" width="511pt" xmlns="http://www.w3.org/2000/svg"><path d="m316.085938 236.355469h-3.0625v-11.101563c0-5.261718 2.335937-10.1875 6.410156-13.511718 7.578125-6.183594 11.925781-15.339844 11.925781-25.121094v-103.027344c0-11.777344-9.582031-21.359375-21.359375-21.359375-2.222656 0-4.363281.34375-6.378906.972656v-29.273437c0-11.777344-9.582032-21.359375-21.359375-21.359375-2.777344 0-5.421875.546875-7.859375 1.515625-3.117188-7.941406-10.839844-13.589844-19.875-13.589844s-16.761719 5.648438-19.875 13.589844c-2.4375-.96875-5.085938-1.515625-7.863282-1.515625-10.457031 0-19.167968 7.5625-20.992187 17.5-2.121094-.707031-4.386719-1.109375-6.742187-1.109375-11.777344 0-21.359376 9.582031-21.359376 21.359375v80.042969c0 4.136718 3.351563 7.492187 7.488282 7.492187 4.136718 0 7.492187-3.351563 7.492187-7.492187v-80.042969c0-3.515625 2.859375-6.375 6.378907-6.375 3.515624 0 6.375 2.859375 6.375 6.375v59.550781c0 4.136719 3.355468 7.492188 7.492187 7.492188s7.492187-3.351563 7.492187-7.492188v-75.941406c0-3.519532 2.859376-6.378906 6.375-6.378906 3.519532 0 6.378907 2.859374 6.378907 6.378906v75.941406c0 4.136719 3.355469 7.492188 7.492187 7.492188 4.136719 0 7.488282-3.351563 7.488282-7.492188v-88.015625c0-3.519531 2.863281-6.378906 6.378906-6.378906s6.378906 2.859375 6.378906 6.378906v88.015625c0 4.136719 3.351562 7.492188 7.488281 7.492188s7.492188-3.351563 7.492188-7.492188v-75.941406c0-3.519532 2.859375-6.378906 6.378906-6.378906 3.515625 0 6.375 2.859374 6.375 6.378906v99.902344c0 4.351562-2.605469 8.21875-6.636719 9.859374l-18.046875 7.332032c-8.632812 3.503906-14.210937 11.789062-14.210937 21.105468v6.710938c0 4.140625 3.355468 7.492188 7.492187 7.492188s7.492188-3.351563 7.492188-7.492188v-6.710938c0-3.191406 1.910156-6.027343 4.863281-7.226562l18.050781-7.332031c9.707031-3.941407 15.980469-13.261719 15.980469-23.738281v-50.242188c0-3.515625 2.859375-6.378906 6.375-6.378906 3.519531 0 6.378906 2.863281 6.378906 6.378906v103.027344c0 5.261718-2.335937 10.1875-6.414062 13.511718-7.578125 6.183594-11.921875 15.339844-11.921875 25.121094v11.101563h-87.988281v-11.503907c0-9.449218-4.105469-18.402343-11.316407-24.613281-3.851562-3.316406-6.058593-8.132812-6.058593-13.214843v-23.363282c0-4.136718-3.355469-7.492187-7.492188-7.492187s-7.492188 3.355469-7.492188 7.492187v23.363282c0 9.449218 4.109376 18.402343 11.320313 24.613281 3.851563 3.316406 6.058594 8.132812 6.058594 13.214843v11.546876c-9.652344.445312-17.378907 8.414062-17.378907 18.175781v237.539062c0 4.136719 3.355469 7.492188 7.492188 7.492188s7.492188-3.355469 7.492188-7.492188v-181.402343h126.648437v181.402343c0 4.136719 3.355469 7.492188 7.492187 7.492188 4.136719 0 7.492188-3.355469 7.492188-7.492188v-237.539062c-.003906-10.046875-8.179688-18.21875-18.226562-18.21875zm-123.410157 59.371093v-41.148437c0-1.789063 1.453125-3.242187 3.238281-3.242187h120.175782c1.785156 0 3.238281 1.453124 3.238281 3.242187v41.148437zm0 0"/><path d="m493.777344 362.0625h-3.0625v-11.101562c0-5.261719 2.335937-10.1875 6.414062-13.511719 7.574219-6.183594 11.921875-15.339844 11.921875-25.121094v-103.027344c0-11.777343-9.582031-21.359375-21.359375-21.359375-2.222656 0-4.363281.34375-6.378906.972656v-29.277343c0-11.773438-9.582031-21.355469-21.359375-21.355469-2.777344 0-5.425781.546875-7.859375 1.515625-3.117188-7.941406-10.839844-13.589844-19.875-13.589844s-16.761719 5.648438-19.878906 13.589844c-2.433594-.96875-5.082032-1.515625-7.859375-1.515625-10.460938 0-19.167969 7.558594-20.992188 17.5-2.125-.710938-4.386719-1.109375-6.746093-1.109375-11.777344 0-21.359376 9.582031-21.359376 21.359375v136.699219c0 9.449219 4.109376 18.402343 11.21875 24.523437.015626.015625.085938.074219.101563.089844 3.851563 3.316406 6.058594 8.132812 6.058594 13.214844v11.542968c-9.65625.445313-17.378907 8.417969-17.378907 18.179688v111.832031c0 4.136719 3.355469 7.492188 7.492188 7.492188s7.492188-3.355469 7.492188-7.492188v-55.699219h126.648437v55.699219c0 4.136719 3.355469 7.492188 7.492187 7.492188 4.136719 0 7.492188-3.355469 7.492188-7.492188v-111.832031c0-10.046875-8.175781-18.21875-18.222656-18.21875zm-123.410156 59.371094v-41.148438c0-1.789062 1.453124-3.242187 3.238281-3.242187h60.085937c4.136719 0 7.492188-3.351563 7.492188-7.492188 0-4.136719-3.355469-7.488281-7.492188-7.488281h-45.945312v-11.503906c0-9.449219-4.105469-18.402344-11.21875-24.523438-.015625-.015625-.082032-.074218-.097656-.089844-3.855469-3.316406-6.0625-8.132812-6.0625-13.214843v-136.699219c0-3.515625 2.863281-6.378906 6.378906-6.378906s6.375 2.863281 6.375 6.378906v59.550781c0 4.136719 3.355468 7.492188 7.492187 7.492188s7.492188-3.351563 7.492188-7.492188v-75.945312c0-3.515625 2.859375-6.375 6.378906-6.375 3.515625 0 6.375 2.859375 6.375 6.375v75.945312c0 4.136719 3.355469 7.492188 7.492187 7.492188 4.136719 0 7.492188-3.351563 7.492188-7.492188v-88.015625c0-3.519531 2.859375-6.378906 6.375-6.378906 3.519531 0 6.378906 2.859375 6.378906 6.378906v88.015625c0 4.136719 3.351563 7.492188 7.492188 7.492188 4.136718 0 7.488281-3.351563 7.488281-7.492188v-75.945312c0-3.515625 2.863281-6.375 6.378906-6.375s6.378907 2.859375 6.378907 6.375v99.90625c0 4.351562-2.605469 8.21875-6.640626 9.859375l-18.046874 7.332031c-8.632813 3.503906-14.210938 11.789063-14.210938 21.105469v6.710937c0 4.136719 3.355469 7.492188 7.492188 7.492188 4.136718 0 7.492187-3.351563 7.492187-7.492188v-6.710937c0-3.191406 1.910156-6.027344 4.863281-7.226563l18.050782-7.332031c9.707031-3.941406 15.980468-13.261719 15.980468-23.738281v-50.242188c0-3.515625 2.859375-6.378906 6.378906-6.378906 3.515626 0 6.375 2.863281 6.375 6.378906v103.03125c0 5.257813-2.335937 10.183594-6.414062 13.511719-7.578125 6.183594-11.921875 15.335938-11.921875 25.117188v11.101562h-10.320313c-4.136718 0-7.488281 3.351562-7.488281 7.492188 0 4.136718 3.351563 7.488281 7.488281 7.488281h28.367188c1.785156 0 3.238281 1.453125 3.238281 3.242187v41.148438zm0 0"/><path d="m138.394531 362.0625h-3.066406v-11.101562c0-5.261719 2.335937-10.1875 6.414063-13.511719 7.578124-6.183594 11.921874-15.339844 11.921874-25.121094v-103.027344c0-11.777343-9.578124-21.359375-21.359374-21.359375-2.21875 0-4.363282.34375-6.375.972656v-29.277343c0-11.773438-9.582032-21.355469-21.359376-21.355469-2.777343 0-5.425781.546875-7.863281 1.515625-3.113281-7.941406-10.839843-13.589844-19.875-13.589844-9.035156 0-16.761719 5.648438-19.875 13.589844-2.4375-.96875-5.085937-1.515625-7.863281-1.515625-10.457031 0-19.167969 7.558594-20.992188 17.5-2.121093-.710938-4.382812-1.109375-6.742187-1.109375-11.777344 0-21.359375 9.582031-21.359375 21.359375v136.699219c0 9.449219 4.105469 18.402343 11.21875 24.523437.015625.015625.082031.074219.097656.089844 3.851563 3.316406 6.0625 8.132812 6.0625 13.214844v11.542968c-9.65625.445313-17.378906 8.417969-17.378906 18.179688v111.832031c0 4.136719 3.355469 7.492188 7.492188 7.492188 4.136718 0 7.488281-3.355469 7.488281-7.492188v-55.699219h11.308593c4.136719 0 7.492188-3.351562 7.492188-7.488281s-3.355469-7.492187-7.492188-7.492187h-11.308593v-41.152344c0-1.785156 1.453125-3.238281 3.238281-3.238281h120.175781c1.785157 0 3.238281 1.453125 3.238281 3.238281v41.152344h-86.046874c-4.136719 0-7.492188 3.351562-7.492188 7.492187 0 4.136719 3.355469 7.488281 7.492188 7.488281h86.046874v55.699219c0 4.136719 3.355469 7.492188 7.492188 7.492188s7.488281-3.355469 7.488281-7.492188v-111.832031c0-10.046875-8.171875-18.21875-18.21875-18.21875zm-106.035156 0v-11.503906c0-9.449219-4.105469-18.402344-11.21875-24.523438-.015625-.015625-.082031-.074218-.097656-.089844-3.851563-3.316406-6.0625-8.132812-6.0625-13.214843v-136.699219c0-3.515625 2.863281-6.378906 6.378906-6.378906 3.519531 0 6.378906 2.863281 6.378906 6.378906v59.550781c0 4.136719 3.351563 7.492188 7.488281 7.492188 4.136719 0 7.492188-3.351563 7.492188-7.492188v-75.945312c0-3.515625 2.859375-6.375 6.378906-6.375 3.515625 0 6.375 2.859375 6.375 6.375v75.945312c0 4.136719 3.355469 7.492188 7.492188 7.492188 4.136718 0 7.492187-3.351563 7.492187-7.492188v-88.015625c0-3.519531 2.859375-6.378906 6.378907-6.378906 3.515624 0 6.375 2.859375 6.375 6.378906v88.015625c0 4.136719 3.355468 7.492188 7.492187 7.492188s7.488281-3.351563 7.488281-7.492188v-75.945312c0-3.515625 2.863282-6.375 6.378906-6.375 3.519532 0 6.378907 2.859375 6.378907 6.375v99.90625c0 4.351562-2.605469 8.21875-6.636719 9.859375l-18.050781 7.332031c-8.628907 3.503906-14.207031 11.789063-14.207031 21.105469v6.710937c0 4.136719 3.351562 7.492188 7.488281 7.492188s7.492187-3.351563 7.492187-7.492188v-6.710937c0-3.191406 1.910156-6.027344 4.863282-7.226563l18.050781-7.332031c9.707031-3.941406 15.980469-13.261719 15.980469-23.738281v-50.242188c0-3.515625 2.859374-6.378906 6.378906-6.378906 3.515625 0 6.375 2.863281 6.375 6.378906v103.03125c0 5.257813-2.335938 10.183594-6.410156 13.511719-7.578126 6.183594-11.925782 15.335938-11.925782 25.117188v11.101562zm0 0"/></svg>