<svg xmlns="http://www.w3.org/2000/svg" viewBox="0 0 513 513" width="513" height="513">
	<style>
		tspan { white-space:pre }
		.shp0 { fill: #2929cf } 
		.shp1 { fill: #000000 } 
	</style>
	<path id="Layer" class="shp0" d="M501.75 10C501.75 10 499.82 63.83 477.45 127.12L384.63 34.3C447.92 11.93 501.75 10 501.75 10Z" />
	<g id="Layer">
		<path id="Layer" class="shp0" d="M374.47 278.7C426.01 356.01 329.53 405.98 275.48 405.98C303.76 377.7 295.5 341.15 295.5 341.15L284.95 330.6C313.6 317.96 344.17 300.32 373.12 277.01L374.47 278.7Z" />
		<path id="Layer" class="shp0" d="M169.53 300.04L167.91 298.42C163.13 293.63 160.78 286.69 162.46 280.13C166.63 263.89 172.79 245.77 181.15 226.8L284.95 330.6C265.98 338.96 247.86 345.12 231.62 349.29C225.06 350.97 218.12 348.62 213.33 343.84L211.71 342.22L169.53 300.04Z" />
		<path id="Layer" class="shp0" d="M233.05 137.28L234.74 138.63C211.43 167.58 193.79 198.15 181.15 226.8L170.6 216.25C170.6 216.25 134.05 207.99 105.77 236.27C105.77 182.22 155.74 85.74 233.05 137.28Z" />
	</g>
	<path id="Layer" class="shp1" d="M268.66 257.49C272.56 253.58 272.56 247.25 268.66 243.35C264.75 239.44 258.42 239.44 254.51 243.35C250.61 247.25 250.61 253.58 254.51 257.49C258.42 261.39 264.75 261.39 268.66 257.49Z" />
	<path id="Layer" fill-rule="evenodd" class="shp1" d="M325.22 186.78C305.73 167.28 305.73 135.56 325.22 116.07C344.76 96.53 376.39 96.53 395.93 116.07C415.48 135.61 415.47 167.24 395.93 186.78C376.44 206.28 344.72 206.27 325.22 186.78ZM339.37 172.64C351.06 184.33 370.1 184.33 381.79 172.64C393.52 160.91 393.51 141.93 381.79 130.21C370.07 118.49 351.09 118.49 339.36 130.21C327.67 141.91 327.67 160.94 339.37 172.64Z" />
	<path id="Layer" fill-rule="evenodd" class="shp1" d="M96.02 236.27C96.02 196.69 119.59 141.35 157.67 120.97C174.21 112.12 200.37 106.1 233.02 125.32C239.91 117.16 247.11 109.32 254.51 101.92C287.53 68.9 330.27 42.98 381.55 24.87C445.54 2.25 499.38 0.09 501.64 0.01C504.43 -0.1 507.11 0.97 509.07 2.93C511.03 4.89 512.09 7.58 511.99 10.36C511.91 12.62 509.75 66.45 487.13 130.45C469.02 181.73 443.1 224.47 410.08 257.49C402.68 264.89 394.83 272.09 386.68 278.98C405.9 311.63 399.88 337.79 391.03 354.33C370.65 392.41 315.31 415.98 275.73 415.98C271.69 415.98 268.04 413.54 266.49 409.81C264.94 406.07 265.8 401.77 268.66 398.91C288.74 378.83 287.49 354.06 286.42 345.96L282.92 342.46C266.52 349.36 250.21 354.91 234.36 358.98C228.91 360.37 222.86 360.09 216.98 357.77C212.54 367.4 206.03 376.69 197.94 384.77C172.2 410.51 109.47 415.74 106.81 415.95C106.54 415.97 106.28 415.98 106.02 415.98C103.38 415.98 100.83 414.93 98.95 413.05C96.88 410.98 95.82 408.11 96.05 405.19C96.26 402.54 101.49 339.8 127.23 314.06C135.32 305.97 144.61 299.46 154.24 295.02C152.05 289.46 151.55 283.39 153.02 277.65C157.1 261.79 162.65 245.48 169.54 229.08L166.04 225.58C157.95 224.51 133.18 223.26 113.09 243.34C111.18 245.25 108.62 246.27 106.02 246.27C104.73 246.27 103.43 246.02 102.19 245.51C98.46 243.96 96.02 240.31 96.02 236.27ZM200.63 345.03L166.97 311.38C158 314.66 149.07 320.5 141.37 328.2C127.62 341.95 120.37 374.21 117.41 394.59C137.8 391.63 170.05 384.38 183.8 370.63C191.5 362.93 197.34 354 200.63 345.03ZM267.58 327.12L184.88 244.42C179.79 257.35 175.6 270.14 172.4 282.62C171.66 285.51 172.75 288.86 175.24 291.36C191.01 307.12 198.15 314.27 201.07 317.18C202.65 318.77 207.72 323.83 220.65 336.77C223.14 339.26 226.5 340.34 229.39 339.6C241.86 336.4 254.66 332.21 267.58 327.12ZM370.88 291.64C349.58 307.84 326.63 321.92 302.4 333.65C302.52 333.84 304.63 335.47 305.44 338.7C308.94 352.63 306.83 375.59 297.24 393.63C327.3 387.41 360.29 369.37 373.39 344.89C382.15 328.54 381.29 310.65 370.88 291.64ZM491.16 20.84C474.62 22.43 441.5 26.86 403.41 38.69L473.31 108.59C485.14 70.51 489.57 37.38 491.16 20.84ZM242.78 144.9C223.18 169.24 206.58 196.04 193.36 224.62L287.38 318.64C315.97 305.42 342.76 288.82 367.1 269.22C377.23 261.06 386.93 252.36 395.94 243.35C425.57 213.72 449.15 175.49 466.12 129.68L382.32 45.89C336.51 62.86 298.28 86.44 268.65 116.06C259.65 125.07 250.94 134.77 242.78 144.9ZM118.38 214.76C145.22 200.49 171.68 206.19 173.06 206.5C176.4 207.25 178.2 209.51 178.35 209.61C190.09 185.37 204.17 162.42 220.36 141.12C201.35 130.71 183.47 129.85 167.11 138.61C142.63 151.71 124.59 184.7 118.38 214.76Z" />
	<path id="Layer" class="shp1" d="M212.09 455.48L240.37 427.19C244.28 423.28 244.28 416.95 240.37 413.05C236.46 409.14 230.13 409.15 226.23 413.05L197.95 441.34C194.04 445.25 194.04 451.58 197.95 455.48C201.86 459.39 208.19 459.39 212.09 455.48Z" />
	<path id="Layer" class="shp1" d="M70.66 314.05L98.95 285.77C102.86 281.87 102.86 275.54 98.95 271.63C95.05 267.73 88.72 267.73 84.81 271.63L56.52 299.91C52.62 303.81 52.61 310.14 56.52 314.05C60.42 317.95 66.75 317.96 70.66 314.05Z" />
	<path id="Layer" class="shp1" d="M155.52 427.2L87.78 494.93C83.87 498.83 83.87 505.17 87.78 509.07C91.68 512.98 98.02 512.98 101.92 509.07L169.66 441.34C173.57 437.44 173.57 431.1 169.66 427.2C165.76 423.3 159.43 423.3 155.52 427.2Z" />
	<path id="Layer" class="shp1" d="M75.52 427.2L7.78 494.93C3.88 498.83 3.88 505.17 7.78 509.07C11.68 512.98 18.02 512.98 21.92 509.07L89.66 441.34C93.57 437.44 93.57 431.1 89.66 427.2C85.76 423.3 79.43 423.3 75.52 427.2Z" />
	<path id="Layer" class="shp1" d="M17.07 424.22L84.8 356.48C88.71 352.57 88.71 346.24 84.8 342.34C80.9 338.43 74.56 338.43 70.66 342.34L2.93 410.08C-0.98 413.98 -0.98 420.32 2.93 424.22C6.84 428.13 13.17 428.13 17.07 424.22Z" />
	<path id="Layer" class="shp1" d="M296.94 229.2L311.08 215.06C314.99 211.16 314.99 204.83 311.08 200.92C307.18 197.01 300.85 197.01 296.94 200.92L282.8 215.06C278.89 218.96 278.89 225.3 282.8 229.2C286.71 233.11 293.04 233.11 296.94 229.2Z" />
	<g id="Layer">
	</g>
	<g id="Layer">
	</g>
	<g id="Layer">
	</g>
	<g id="Layer">
	</g>
	<g id="Layer">
	</g>
	<g id="Layer">
	</g>
	<g id="Layer">
	</g>
	<g id="Layer">
	</g>
	<g id="Layer">
	</g>
	<g id="Layer">
	</g>
	<g id="Layer">
	</g>
	<g id="Layer">
	</g>
	<g id="Layer">
	</g>
	<g id="Layer">
	</g>
	<g id="Layer">
	</g>
</svg>